<svg xmlns="http://www.w3.org/2000/svg" width="60.253" height="103.139" viewBox="0 0 60.253 103.139">
  <path id="Union_5" data-name="Union 5" d="M26.351,103.139V90.926a53.5,53.5,0,0,1-14.2-2.953A33.734,33.734,0,0,1,.561,81.359L0,80.844,4.908,70.5l1.035.95A30.1,30.1,0,0,0,15.405,77.1a40.314,40.314,0,0,0,10.946,2.587V56.683a78.973,78.973,0,0,1-11.9-3.839A22.676,22.676,0,0,1,5.671,46.2c-2.4-2.972-3.615-6.882-3.615-11.619a20.268,20.268,0,0,1,6.5-15.159c4.112-3.933,10.093-6.31,17.794-7.077V0h8.961V12.194a48.256,48.256,0,0,1,11.136,1.933,36.132,36.132,0,0,1,10.239,4.766l.688.475L53.038,29.884,52,29.226a37.188,37.188,0,0,0-16.684-5.783V46.564a91.074,91.074,0,0,1,12.258,3.884,23.215,23.215,0,0,1,8.946,6.527c2.478,2.938,3.738,6.871,3.738,11.69A19.955,19.955,0,0,1,53.521,83.83c-4.247,3.929-10.37,6.306-18.209,7.069v12.239ZM35.312,79.55c4-.49,7.058-1.615,9.091-3.346a8.609,8.609,0,0,0,3.237-6.9,7.208,7.208,0,0,0-3.256-6.4,33.524,33.524,0,0,0-9.073-3.944ZM17.772,27.229a8.995,8.995,0,0,0-3.1,6.923,7.355,7.355,0,0,0,3.118,6.363A27.692,27.692,0,0,0,26.351,44.3V23.63C22.583,24.246,19.7,25.454,17.772,27.229Z" fill="#fff"/>
</svg>
