<svg id="Group_17020" data-name="Group 17020" xmlns="http://www.w3.org/2000/svg" xmlns:xlink="http://www.w3.org/1999/xlink" width="102.628" height="90.302" viewBox="0 0 102.628 90.302">
  <defs>
    <clipPath id="clip-path">
      <rect id="Rectangle_7788" data-name="Rectangle 7788" width="102.628" height="90.302" fill="#fff"/>
    </clipPath>
  </defs>
  <g id="Group_17009" data-name="Group 17009" transform="translate(0 0)" clip-path="url(#clip-path)">
    <path id="Path_71469" data-name="Path 71469" d="M77.708,27.6a6.827,6.827,0,0,0-6.431,0L56.271,36.442,46.089,42.07,31.351,50.912a6.827,6.827,0,0,1-6.431,0L13.4,43.945a6.531,6.531,0,0,1-3.216-5.627V24.92A6.609,6.609,0,0,1,13.4,19.293l11.522-6.7a6.827,6.827,0,0,1,6.431,0l11.522,6.967a6.531,6.531,0,0,1,3.216,5.627v8.843l10.182-5.9V19.025A6.609,6.609,0,0,0,53.056,13.4L31.619.8a6.827,6.827,0,0,0-6.431,0L3.216,13.666A5.894,5.894,0,0,0,0,19.025V44.213A6.609,6.609,0,0,0,3.216,49.84l21.7,12.594a6.827,6.827,0,0,0,6.431,0L46.089,53.86l10.182-5.9L71.009,39.39a6.827,6.827,0,0,1,6.431,0l11.522,6.7a6.531,6.531,0,0,1,3.216,5.627v13.4a6.609,6.609,0,0,1-3.216,5.627l-11.254,6.7a6.827,6.827,0,0,1-6.431,0l-11.522-6.7a6.531,6.531,0,0,1-3.215-5.627V56.539l-10.182,5.9v8.843A6.609,6.609,0,0,0,49.572,76.9L71.277,89.5a6.827,6.827,0,0,0,6.431,0L99.413,76.9a6.532,6.532,0,0,0,3.215-5.627V45.821a6.609,6.609,0,0,0-3.215-5.627Z" transform="translate(0 0)" fill="#fff"/>
  </g>
</svg>
