<svg xmlns="http://www.w3.org/2000/svg" xmlns:xlink="http://www.w3.org/1999/xlink" width="79.831" height="77.503" viewBox="0 0 79.831 77.503">
  <defs>
    <clipPath id="clip-path">
      <rect id="Rectangle_656" data-name="Rectangle 656" width="79.831" height="77.503" fill="#fff"/>
    </clipPath>
  </defs>
  <g id="Logo" transform="translate(-824.047 -355.954)">
    <g id="Group_91" data-name="Group 91" transform="translate(824.047 355.954)">
      <g id="Group_90" data-name="Group 90" clip-path="url(#clip-path)">
        <path id="Path_46968" data-name="Path 46968" d="M33.488,77.5V0H82.237a22.811,22.811,0,0,1,9.318,1.913,24.594,24.594,0,0,1,12.728,12.728,22.814,22.814,0,0,1,1.913,9.317,23.387,23.387,0,0,1-1.913,9.4,24.482,24.482,0,0,1-5.158,7.653,24.741,24.741,0,0,1-7.57,5.158,22.762,22.762,0,0,1-9.318,1.914h-22.3L66.1,36.1a8.962,8.962,0,0,1,2.246-2.745,6.457,6.457,0,0,1,3.245-.583h5.657a8.8,8.8,0,0,0,8.818-8.818,8.8,8.8,0,0,0-8.818-8.818H58.112a3.908,3.908,0,0,0-2.995,1.248,4.337,4.337,0,0,0-1.165,3.078V77.5Z" transform="translate(-26.365)" fill="#fff"/>
        <rect id="Rectangle_655" data-name="Rectangle 655" width="35.374" height="10.507" transform="translate(0 57.147)" fill="#fff"/>
      </g>
    </g>
  </g>
</svg>
